Genre:Drama
Language:English  http://www.imdb.com/title/tt1289419/
Source:Cam Dvdr

General
Complete name :N-Secure.2010.Cam.XviD.Feel-Free
Format : AVI
Format/Info : Audio Video Interleave
File size : 777 MiB
Duration : 1h 38mn
Overall bit rate : 1 108 Kbps
Video #0
Codec ID : XVID
Codec ID/Hint : XviD
Duration : 1h 38mn
Bit rate : 968 Kbps
Width : 720 pixels
Height : 384 pixels
Display aspect ratio : 1.875
Frame rate : 29.970 fps
Resolution : 24 bits
Colorimetry : 4:2:0
Scan type : Progressive
Bits/(Pixel*Frame) : 0.117
Stream size : 679 MiB (87%)
Writing library : XviD 1.2.1 (UTC 2008-12-04)
Audio #1
ID : 1
Format : MPEG Audio
Format version : Version 1
Format profile : Layer 3
Codec ID : 55
Codec ID/Hint : MP3
Duration : 1h 38mn
Bit rate mode : Constant
Bit rate : 128 Kbps
Channel(s) : 2 channels
Sampling rate : 48.0 KHz
Resolution : 16 bits
Stream size : 89.8 MiB (12%)
Alignment : Split accross interleaves
Interleave, duration : 33 ms (1.00 video frame)
Interleave, preload duration : 500 ms


Plot:
N-Secure is a no holds-barred thrilling drama mixed with murder, mayhem and manipulation among affluent professionals. This film sheds light on a man's downfall from the pinnacles of success into the depths of his damaged character. His insecurities lead him into a series of troubled romantic relationships and eventually a web of events that include betrayal and murder.

